<?xml version="1.0" encoding="UTF-8"?>
<svg id="Capa_1" xmlns="http://www.w3.org/2000/svg" version="1.1" viewBox="0 0 600 184.6">
  <!-- Generator: Adobe Illustrator 29.5.0, SVG Export Plug-In . SVG Version: 2.1.0 Build 137)  -->
  <defs>
    <style>
      .st0 {
        font-family: Arial-ItalicMT, Arial;
        font-size: 8px;
        font-style: italic;
      }

      .st1 {
        font-family: Arial-BoldMT, Arial;
        font-size: 10px;
        font-weight: 700;
      }

      .st2 {
        fill: #fe4010;
      }

      .st3 {
        fill: #fe8e69;
        stroke: #f9eeed;
      }

      .st3, .st4 {
        stroke-miterlimit: 10;
      }

      .st5 {
        fill: #f9eeed;
      }

      .st6 {
        fill: #e0d4d3;
      }

      .st7 {
        fill: #ffc5bb;
      }

      .st4 {
        fill: none;
        stroke: #fe8e69;
        stroke-width: 5px;
      }

      .st8 {
        fill: #aaa1a0;
      }
    </style>
  </defs>
  <g>
    <rect class="st6" x="29.42" y="21.06" width="548.79" height="146.14" rx="12" ry="12"/>
    <rect class="st5" x="21.79" y="17.4" width="548.79" height="146.14" rx="12" ry="12"/>
  </g>
  <g>
    <line class="st4" x1="59.41" y1="114.27" x2="553.21" y2="114.27"/>
    <rect class="st3" x="150.84" y="111.12" width="6.02" height="14.71"/>
    <rect class="st3" x="298.55" y="111.12" width="6.02" height="14.71"/>
    <rect class="st3" x="453.87" y="111.12" width="6.02" height="14.71"/>
  </g>
  <g>
    <rect class="st7" x="386.79" y="59.29" width="140.2" height="44.06" rx="8.25" ry="8.25"/>
    <path class="st2" d="M526.98,95.98c0,4.55-3.69,8.25-8.25,8.25h-123.7c-4.55,0-8.25-3.69-8.25-8.25"/>
  </g>
  <g>
    <rect class="st7" x="229.9" y="58.85" width="140.2" height="44.06" rx="8.25" ry="8.25"/>
    <path class="st2" d="M370.1,95.54c0,4.55-3.69,8.25-8.25,8.25h-123.7c-4.55,0-8.25-3.69-8.25-8.25"/>
  </g>
  <g>
    <path class="st8" d="M46.1,142.61l-.09-.98c.39-.05.72-.15.97-.32.25-.17.46-.43.61-.79.16-.36.23-.76.23-1.21,0-.4-.06-.75-.18-1.05-.12-.3-.28-.53-.49-.68-.21-.15-.43-.22-.67-.22s-.46.07-.65.21c-.18.14-.34.38-.46.71-.08.21-.21.68-.38,1.4-.17.72-.34,1.23-.49,1.52-.2.38-.44.66-.73.84-.29.18-.62.28-.98.28-.4,0-.77-.11-1.11-.34-.35-.23-.61-.55-.79-.99-.18-.43-.27-.92-.27-1.44,0-.58.09-1.1.28-1.54.19-.45.46-.79.83-1.03.37-.24.78-.37,1.24-.39l.08,1c-.5.05-.87.24-1.13.55-.25.31-.38.77-.38,1.37s.12,1.09.35,1.38c.23.29.51.43.83.43.28,0,.52-.1.7-.31.18-.2.37-.72.56-1.57.19-.85.36-1.43.5-1.74.21-.46.48-.8.8-1.01.32-.22.7-.33,1.12-.33s.81.12,1.18.36c.37.24.66.58.86,1.03.21.45.31.96.31,1.52,0,.71-.1,1.31-.31,1.79-.21.48-.52.86-.94,1.13-.42.27-.89.42-1.42.43Z"/>
    <path class="st8" d="M46.79,131.14l.12-1c.58.16,1.04.45,1.36.88.32.43.48.97.48,1.63,0,.83-.26,1.5-.77,1.99-.51.49-1.23.73-2.16.73s-1.7-.25-2.23-.74-.79-1.13-.79-1.92.26-1.39.78-1.87,1.25-.72,2.19-.72c.06,0,.14,0,.26,0v4.25c.63-.04,1.11-.21,1.44-.53.33-.32.5-.72.5-1.19,0-.35-.09-.66-.28-.91-.19-.25-.48-.45-.89-.6ZM45.23,134.31v-3.18c-.48.04-.84.16-1.08.37-.37.31-.56.71-.56,1.2,0,.44.15.82.45,1.12s.69.47,1.19.5Z"/>
    <path class="st8" d="M48.63,128.93h-5.7v-.87h.8c-.28-.18-.5-.42-.67-.71-.17-.3-.25-.64-.25-1.02,0-.42.09-.77.26-1.04s.42-.46.74-.57c-.67-.45-1-1.04-1-1.76,0-.57.16-1,.47-1.3.31-.3.8-.46,1.45-.46h3.92v.96h-3.59c-.39,0-.67.03-.84.09-.17.06-.31.18-.41.34-.1.17-.16.36-.16.58,0,.4.13.73.4,1,.27.27.69.4,1.28.4h3.31v.97h-3.71c-.43,0-.75.08-.97.24-.21.16-.32.42-.32.77,0,.27.07.52.21.75.14.23.35.4.63.5.28.1.67.16,1.19.16h2.96v.97Z"/>
    <path class="st8" d="M46.79,115.86l.12-1c.58.16,1.04.45,1.36.88.32.43.48.97.48,1.63,0,.83-.26,1.5-.77,1.98-.51.49-1.23.73-2.16.73s-1.7-.25-2.23-.74-.79-1.14-.79-1.92.26-1.39.78-1.87,1.25-.73,2.19-.73c.06,0,.14,0,.26,0v4.25c.63-.04,1.11-.21,1.44-.53.33-.32.5-.72.5-1.19,0-.35-.09-.66-.28-.91-.19-.25-.48-.45-.89-.6ZM45.23,119.03v-3.19c-.48.04-.84.17-1.08.37-.37.31-.56.71-.56,1.2,0,.44.15.82.45,1.12.3.3.69.47,1.19.5Z"/>
    <path class="st8" d="M46.92,114.03l-.15-.96c.38-.05.68-.2.88-.45s.31-.59.31-1.03-.09-.77-.27-.99c-.18-.21-.39-.32-.64-.32-.22,0-.39.09-.52.28-.09.13-.2.46-.33.99-.18.71-.33,1.2-.46,1.47-.13.27-.31.48-.54.62-.23.14-.49.21-.77.21-.25,0-.49-.06-.71-.17-.22-.12-.4-.28-.54-.48-.11-.15-.21-.36-.28-.62-.08-.26-.12-.54-.12-.83,0-.45.06-.84.19-1.18.13-.34.3-.59.52-.75.22-.16.52-.27.88-.33l.13.95c-.29.04-.52.17-.69.37-.16.21-.25.5-.25.87,0,.44.07.76.22.95.15.19.32.28.52.28.13,0,.24-.04.34-.12.1-.08.19-.2.26-.37.04-.1.12-.38.25-.85.18-.68.33-1.16.45-1.43.12-.27.29-.48.51-.64.22-.15.5-.23.83-.23s.63.09.91.28c.29.19.5.46.66.81.16.35.23.76.23,1.2,0,.74-.15,1.31-.46,1.7-.31.39-.76.64-1.37.74Z"/>
    <path class="st8" d="M47.76,106.04l.85-.14c.06.27.09.52.09.73,0,.35-.06.62-.17.82s-.26.33-.44.41c-.18.08-.56.12-1.14.12h-3.28v.71h-.75v-.71h-1.41l-.58-.96h1.99v-.97h.75v.97h3.34c.28,0,.45-.02.53-.05s.14-.09.19-.17c.05-.08.07-.19.07-.33,0-.11-.01-.25-.04-.42Z"/>
    <path class="st8" d="M48.63,105.1h-5.7v-.87h.86c-.4-.22-.67-.43-.8-.62-.13-.19-.19-.39-.19-.62,0-.33.1-.66.31-.99l.9.33c-.14.24-.21.47-.21.71,0,.21.06.4.19.57.13.17.3.29.53.36.34.11.72.16,1.13.16h2.99v.97Z"/>
    <path class="st8" d="M46.79,97.52l.12-1c.58.16,1.04.45,1.36.88.32.43.48.97.48,1.63,0,.83-.26,1.5-.77,1.98-.51.49-1.23.73-2.16.73s-1.7-.25-2.23-.74-.79-1.14-.79-1.92.26-1.39.78-1.87,1.25-.73,2.19-.73c.06,0,.14,0,.26,0v4.25c.63-.04,1.11-.21,1.44-.53.33-.32.5-.72.5-1.19,0-.35-.09-.66-.28-.91-.19-.25-.48-.45-.89-.6ZM45.23,100.7v-3.19c-.48.04-.84.17-1.08.37-.37.31-.56.71-.56,1.2,0,.44.15.82.45,1.12.3.3.69.47,1.19.5Z"/>
    <path class="st8" d="M46.92,95.7l-.15-.96c.38-.05.68-.2.88-.45s.31-.59.31-1.03-.09-.77-.27-.99c-.18-.21-.39-.32-.64-.32-.22,0-.39.09-.52.28-.09.13-.2.46-.33.99-.18.71-.33,1.2-.46,1.47-.13.27-.31.48-.54.62-.23.14-.49.21-.77.21-.25,0-.49-.06-.71-.17-.22-.12-.4-.28-.54-.48-.11-.15-.21-.36-.28-.62-.08-.26-.12-.54-.12-.83,0-.45.06-.84.19-1.18.13-.34.3-.59.52-.75.22-.16.52-.27.88-.33l.13.95c-.29.04-.52.17-.69.37-.16.21-.25.5-.25.87,0,.44.07.76.22.95.15.19.32.28.52.28.13,0,.24-.04.34-.12.1-.08.19-.2.26-.37.04-.1.12-.38.25-.85.18-.68.33-1.16.45-1.43.12-.27.29-.48.51-.64.22-.15.5-.23.83-.23s.63.09.91.28c.29.19.5.46.66.81.16.35.23.76.23,1.2,0,.74-.15,1.31-.46,1.7-.31.39-.76.64-1.37.74Z"/>
  </g>
  <text class="st1" transform="translate(124.28 139.9)"><tspan x="0" y="0">Ciclo Básico</tspan><tspan x="18.34" y="12">I a IV</tspan></text>
  <text class="st1" transform="translate(255.11 139.9)"><tspan x="0" y="0">Ciclo Especializado</tspan><tspan x="30.29" y="12">V a VIII</tspan></text>
  <text class="st1" transform="translate(416.04 139.9)"><tspan x="0" y="0">Ciclo Profesional</tspan><tspan x="27.22" y="12">IX a X</tspan></text>
  <text class="st0" transform="translate(416.6 82.67)"><tspan x="0" y="0">Proyecto de Titulo I y II</tspan></text>
  <text class="st0" transform="translate(269.96 82.67)"><tspan x="0" y="0">Proyecto V y VI</tspan></text>
</svg>